<svg width="20" height="20" viewBox="0 0 20 20" fill="none" xmlns="http://www.w3.org/2000/svg">
<path d="M9.9999 2.1999C9.9999 1.20579 10.8058 0.399902 11.7999 0.399902C12.794 0.399902 13.5999 1.20579 13.5999 2.1999V2.7999C13.5999 3.46264 14.1372 3.9999 14.7999 3.9999H18.3999C19.0626 3.9999 19.5999 4.53716 19.5999 5.1999V8.7999C19.5999 9.46264 19.0626 9.9999 18.3999 9.9999H17.7999C16.8058 9.9999 15.9999 10.8058 15.9999 11.7999C15.9999 12.794 16.8058 13.5999 17.7999 13.5999H18.3999C19.0626 13.5999 19.5999 14.1372 19.5999 14.7999V18.3999C19.5999 19.0626 19.0626 19.5999 18.3999 19.5999H14.7999C14.1372 19.5999 13.5999 19.0626 13.5999 18.3999V17.7999C13.5999 16.8058 12.794 15.9999 11.7999 15.9999C10.8058 15.9999 9.9999 16.8058 9.9999 17.7999V18.3999C9.9999 19.0626 9.46264 19.5999 8.7999 19.5999H5.1999C4.53716 19.5999 3.9999 19.0626 3.9999 18.3999V14.7999C3.9999 14.1372 3.46264 13.5999 2.7999 13.5999H2.1999C1.20579 13.5999 0.399902 12.794 0.399902 11.7999C0.399902 10.8058 1.20579 9.9999 2.1999 9.9999H2.7999C3.46264 9.9999 3.9999 9.46264 3.9999 8.7999V5.1999C3.9999 4.53716 4.53716 3.9999 5.1999 3.9999H8.7999C9.46264 3.9999 9.9999 3.46264 9.9999 2.7999V2.1999Z" fill="#334260"/>
</svg>
