<svg width="20" height="20" viewBox="0 0 20 20" fill="none" xmlns="http://www.w3.org/2000/svg">
<path d="M11.6668 1.6665H5.00017C4.55814 1.6665 4.13422 1.84209 3.82166 2.15465C3.5091 2.46721 3.3335 2.89114 3.3335 3.33316V16.6665C3.3335 17.1085 3.5091 17.5324 3.82166 17.845C4.13422 18.1576 4.55814 18.3332 5.00017 18.3332H15.0002C15.4422 18.3332 15.8661 18.1576 16.1787 17.845C16.4913 17.5324 16.6668 17.1085 16.6668 16.6665V6.6665L11.6668 1.6665Z" stroke="#F4F4F4" stroke-width="1.5" stroke-linecap="round" stroke-linejoin="round"/>
<path d="M13.3332 14.1665H6.6665" stroke="#F4F4F4" stroke-width="1.5" stroke-linecap="round" stroke-linejoin="round"/>
<path d="M13.3332 10.8335H6.6665" stroke="#F4F4F4" stroke-width="1.5" stroke-linecap="round" stroke-linejoin="round"/>
<path d="M8.33316 7.5H7.49983H6.6665" stroke="#F4F4F4" stroke-width="1.5" stroke-linecap="round" stroke-linejoin="round"/>
<path d="M11.667 1.6665V6.6665H16.667" stroke="#F4F4F4" stroke-width="1.5" stroke-linecap="round" stroke-linejoin="round"/>
</svg>
