<svg width="72" height="54" viewBox="0 0 72 54" fill="none" xmlns="http://www.w3.org/2000/svg">
<mask id="path-1-inside-1_157_3888" fill="white">
<path d="M0 0H72V54H0V0Z"/>
</mask>
<path d="M0 0H72V54H0V0Z" fill="black" fill-opacity="0.196"/>
<path d="M65.6 0V54H78.4V0H65.6ZM2.4 54V0H-2.4V54H2.4Z" fill="url(#paint0_linear_157_3888)" mask="url(#path-1-inside-1_157_3888)"/>
<path d="M35.6668 18.6667H29.0002C28.5581 18.6667 28.1342 18.8423 27.8217 19.1549C27.5091 19.4675 27.3335 19.8914 27.3335 20.3334V33.6668C27.3335 34.1088 27.5091 34.5327 27.8217 34.8453C28.1342 35.1579 28.5581 35.3335 29.0002 35.3335H39.0002C39.4422 35.3335 39.8661 35.1579 40.1787 34.8453C40.4913 34.5327 40.6668 34.1088 40.6668 33.6668V23.6667L35.6668 18.6667Z" stroke="#F4F4F4" stroke-width="1.5" stroke-linecap="round" stroke-linejoin="round"/>
<path d="M37.3332 31.1667H30.6665" stroke="#F4F4F4" stroke-width="1.5" stroke-linecap="round" stroke-linejoin="round"/>
<path d="M37.3332 27.8333H30.6665" stroke="#F4F4F4" stroke-width="1.5" stroke-linecap="round" stroke-linejoin="round"/>
<path d="M32.3332 24.5H31.4998H30.6665" stroke="#F4F4F4" stroke-width="1.5" stroke-linecap="round" stroke-linejoin="round"/>
<path d="M35.6665 18.6667V23.6667H40.6665" stroke="#F4F4F4" stroke-width="1.5" stroke-linecap="round" stroke-linejoin="round"/>
<defs>
<linearGradient id="paint0_linear_157_3888" x1="2.88" y1="27" x2="74.88" y2="27" gradientUnits="userSpaceOnUse">
<stop stop-color="#6E75FF" stop-opacity="0"/>
<stop stop-color="#6E75FF"/>
</linearGradient>
</defs>
</svg>
