<svg width="182" height="25" viewBox="0 0 182 25" fill="none" xmlns="http://www.w3.org/2000/svg">
<path d="M53.7656 22.3281C53.1198 21.8385 52.9635 21.3438 53.2969 20.8438L54.5 19.0312C54.8958 18.4375 55.474 18.4062 56.2344 18.9375C56.8177 19.3438 57.5781 19.7656 58.5156 20.2031C59.4635 20.6302 60.4583 20.8438 61.5 20.8438C62.2292 20.8438 62.9323 20.7604 63.6094 20.5938C64.2865 20.4271 64.8021 20.1042 65.1562 19.625C65.5104 19.1458 65.6875 18.5781 65.6875 17.9219C65.6875 17.4531 65.6094 17.0417 65.4531 16.6875C65.2969 16.3333 65.0417 16.0417 64.6875 15.8125C64.3333 15.5833 63.9688 15.3906 63.5938 15.2344C62.9375 14.9635 62.1094 14.6979 61.1094 14.4375C60.1198 14.1667 59.1406 13.8438 58.1719 13.4688C57.3073 13.1354 56.5156 12.6771 55.7969 12.0938C55.0781 11.5104 54.5208 10.8542 54.125 10.125C53.7292 9.39583 53.5312 8.42188 53.5312 7.20312C53.5312 5.75521 54 4.51562 54.9375 3.48438C55.875 2.45312 56.9531 1.79167 58.1719 1.5C59.3906 1.20833 60.6198 1.0625 61.8594 1.0625C63.0885 1.0625 64.3542 1.25 65.6562 1.625C66.9688 2 67.9583 2.46875 68.625 3.03125C69.2812 3.58333 69.4427 4.08333 69.1094 4.53125L67.8438 6.23438C67.4167 6.81771 66.8438 6.86458 66.125 6.375C65.6667 6.0625 65.0365 5.71354 64.2344 5.32812C63.4427 4.94271 62.6146 4.75 61.75 4.75C61.1354 4.75 60.5677 4.80208 60.0469 4.90625C59.5365 5.01042 59.0833 5.26042 58.6875 5.65625C58.2917 6.05208 58.0938 6.54167 58.0938 7.125C58.0938 7.6875 58.2396 8.14583 58.5312 8.5C58.8229 8.84375 59.1458 9.10417 59.5 9.28125C59.8542 9.44792 60.2135 9.58854 60.5781 9.70312C61.7031 10.0677 62.7083 10.3906 63.5938 10.6719C64.4792 10.9427 65.2969 11.2448 66.0469 11.5781C67.0885 12.0469 67.8854 12.5156 68.4375 12.9844C68.9896 13.4531 69.4427 14.0938 69.7969 14.9062C70.1615 15.7188 70.3438 16.6875 70.3438 17.8125C70.3438 19.4792 69.8125 20.8594 68.75 21.9531C67.6875 23.0365 66.5052 23.7344 65.2031 24.0469C63.9115 24.3698 62.651 24.5312 61.4219 24.5312C59.6094 24.5312 58.1354 24.3542 57 24C55.8646 23.6562 54.7865 23.099 53.7656 22.3281ZM72.6875 15.7969C72.6875 13.1406 73.3542 11.0573 74.6875 9.54688C76.0208 8.03646 78.0677 7.28125 80.8281 7.28125C82.4427 7.28125 83.6979 7.49479 84.5938 7.92188C85.4896 8.34896 86.2083 8.97396 86.75 9.79688C87.0729 10.2865 87.0208 10.6719 86.5938 10.9531L84.9375 12.0469C84.4688 12.3594 84.0573 12.2396 83.7031 11.6875C83.526 11.4167 83.1875 11.125 82.6875 10.8125C82.1875 10.5 81.5677 10.3438 80.8281 10.3438C79.651 10.3438 78.7708 10.7604 78.1875 11.5938C77.6042 12.4167 77.3125 13.8177 77.3125 15.7969C77.3125 17.776 77.6042 19.1823 78.1875 20.0156C78.7708 20.8385 79.651 21.25 80.8281 21.25C81.6719 21.25 82.3542 21.0729 82.875 20.7188C83.3958 20.3646 83.8854 19.9062 84.3438 19.3438C84.7396 18.8646 85.1562 18.7969 85.5938 19.1406L87.0469 20.2812C87.4844 20.625 87.5104 21.0833 87.125 21.6562C86.7188 22.2604 86.026 22.8542 85.0469 23.4375C84.0781 24.0208 82.6719 24.3125 80.8281 24.3125C78.0677 24.3125 76.0208 23.5573 74.6875 22.0469C73.3542 20.5365 72.6875 18.4531 72.6875 15.7969ZM91.4688 24C90.8438 24 90.5312 23.6875 90.5312 23.0625V8.53125C90.5312 7.90625 90.8438 7.59375 91.4688 7.59375H93.9375C94.5625 7.59375 94.875 7.90625 94.875 8.53125V9.8125H94.9375C95.2083 9.14583 95.6615 8.55729 96.2969 8.04688C96.9323 7.53646 97.6823 7.28125 98.5469 7.28125C99.1406 7.28125 99.6302 7.35417 100.016 7.5C100.38 7.63542 100.521 7.88542 100.438 8.25L100 10.1094C99.9062 10.526 99.625 10.651 99.1562 10.4844C98.8854 10.3906 98.625 10.3438 98.375 10.3438C97.375 10.3438 96.5469 10.9427 95.8906 12.1406C95.2344 13.3385 94.9062 15.0833 94.9062 17.375V23.0625C94.9062 23.6875 94.5938 24 93.9688 24H91.4688ZM103.75 24C103.125 24 102.812 23.6875 102.812 23.0625V8.53125C102.812 7.90625 103.125 7.59375 103.75 7.59375H106.25C106.875 7.59375 107.188 7.90625 107.188 8.53125V23.0625C107.188 23.6875 106.875 24 106.25 24H103.75ZM103.75 5.1875C103.125 5.1875 102.812 4.875 102.812 4.25V2.25C102.812 1.625 103.125 1.3125 103.75 1.3125H106.25C106.875 1.3125 107.188 1.625 107.188 2.25V4.25C107.188 4.875 106.875 5.1875 106.25 5.1875H103.75ZM112.375 24C111.75 24 111.438 23.6875 111.438 23.0625V1.875C111.438 1.25 111.75 0.9375 112.375 0.9375H114.875C115.5 0.9375 115.812 1.25 115.812 1.875V8.1875C115.812 8.60417 115.792 9.02083 115.75 9.4375H115.812C116.354 8.54167 116.958 7.95833 117.625 7.6875C118.292 7.41667 119.094 7.28125 120.031 7.28125C122.479 7.28125 124.198 8.13021 125.188 9.82812C126.188 11.5156 126.688 13.5052 126.688 15.7969C126.688 18.0885 126.188 20.0833 125.188 21.7812C124.198 23.4688 122.479 24.3125 120.031 24.3125C119.094 24.3125 118.292 24.1771 117.625 23.9062C116.958 23.6354 116.354 23.0521 115.812 22.1562H115.75L115.688 23.0625C115.646 23.6875 115.365 24 114.844 24H112.375ZM115.812 16.5C115.812 17.9062 116.089 19.0521 116.641 19.9375C117.203 20.8125 117.875 21.25 118.656 21.25C120.062 21.25 120.979 20.7604 121.406 19.7812C121.844 18.7917 122.062 17.4635 122.062 15.7969C122.062 14.1302 121.844 12.8073 121.406 11.8281C120.979 10.8385 120.062 10.3438 118.656 10.3438C117.875 10.3438 117.203 10.7865 116.641 11.6719C116.089 12.5469 115.812 13.6875 115.812 15.0938V16.5ZM129.188 15.7969C129.188 13.1615 129.844 11.0833 131.156 9.5625C132.479 8.04167 134.344 7.28125 136.75 7.28125C139.542 7.28125 141.615 8 142.969 9.4375C144.323 10.875 145 13.1875 145 16.375C145 17 144.708 17.3125 144.125 17.3125H133.812C133.979 19.0417 134.406 20.1302 135.094 20.5781C135.781 21.026 136.578 21.25 137.484 21.25C138.349 21.25 139.01 21.1354 139.469 20.9062C139.927 20.6771 140.312 20.3646 140.625 19.9688C140.979 19.5104 141.417 19.4375 141.938 19.75L143.5 20.7031C144.115 21.0781 144.203 21.526 143.766 22.0469C143.13 22.8073 142.385 23.375 141.531 23.75C140.677 24.125 139.328 24.3125 137.484 24.3125C134.495 24.3125 132.365 23.5521 131.094 22.0312C129.823 20.5104 129.188 18.4323 129.188 15.7969ZM133.828 14.1875H140.625C140.625 13.0625 140.344 12.1458 139.781 11.4375C139.219 10.7188 138.323 10.3594 137.094 10.3594C136.115 10.3594 135.339 10.7031 134.766 11.3906C134.193 12.0677 133.88 13 133.828 14.1875ZM149.312 24C148.583 24 148.219 23.6094 148.219 22.8281V20.7344C148.219 19.9531 148.583 19.5625 149.312 19.5625H151.688C152.417 19.5625 152.781 19.9531 152.781 20.7344V22.8281C152.781 23.6094 152.417 24 151.688 24H149.312ZM156.969 19.625C156.969 17.5417 157.964 16.0312 159.953 15.0938C161.943 14.1562 164.214 13.6562 166.766 13.5938V12.9688C166.766 12.0104 166.526 11.3333 166.047 10.9375C165.568 10.5417 164.901 10.3438 164.047 10.3438C163.443 10.3438 162.906 10.4323 162.438 10.6094C161.979 10.776 161.578 10.974 161.234 11.2031C160.901 11.4219 160.599 11.6458 160.328 11.875C159.849 12.2917 159.453 12.3125 159.141 11.9375L157.844 10.3438C157.521 9.94792 157.599 9.54167 158.078 9.125C158.443 8.80208 158.865 8.52083 159.344 8.28125C159.833 8.04167 160.479 7.81771 161.281 7.60938C162.083 7.39062 163.125 7.28125 164.406 7.28125C166.573 7.28125 168.234 7.78125 169.391 8.78125C170.557 9.78125 171.141 11.2552 171.141 13.2031V23.0625C171.141 23.6875 170.828 24 170.203 24H167.641C167.078 24 166.797 23.6875 166.797 23.0625V22.5938H166.766C166.151 23.1875 165.411 23.625 164.547 23.9062C163.693 24.1771 162.906 24.3125 162.188 24.3125C160.479 24.3125 159.182 23.8958 158.297 23.0625C157.411 22.2188 156.969 21.0729 156.969 19.625ZM161.594 19.5312C161.594 19.8958 161.667 20.2135 161.812 20.4844C161.958 20.7448 162.188 20.9375 162.5 21.0625C162.812 21.1875 163.161 21.25 163.547 21.25C164.078 21.25 164.594 21.1771 165.094 21.0312C165.594 20.8854 166.151 20.5417 166.766 20V16.6094C165.016 16.8073 163.844 17.0625 163.25 17.375C162.656 17.6875 162.229 18.0104 161.969 18.3438C161.719 18.6771 161.594 19.0729 161.594 19.5312ZM176.344 24C175.719 24 175.406 23.6875 175.406 23.0625V8.53125C175.406 7.90625 175.719 7.59375 176.344 7.59375H178.844C179.469 7.59375 179.781 7.90625 179.781 8.53125V23.0625C179.781 23.6875 179.469 24 178.844 24H176.344ZM176.344 5.1875C175.719 5.1875 175.406 4.875 175.406 4.25V2.25C175.406 1.625 175.719 1.3125 176.344 1.3125H178.844C179.469 1.3125 179.781 1.625 179.781 2.25V4.25C179.781 4.875 179.469 5.1875 178.844 5.1875H176.344Z" fill="#2D2A55"/>
<path d="M31.5 0C32.4283 0 33.3185 0.376274 33.9749 1.04605C34.6313 1.71582 35 2.62423 35 3.57143V21.4286C35 22.3758 34.6313 23.2842 33.9749 23.954C33.3185 24.6237 32.4283 25 31.5 25H3.5C2.57174 25 1.6815 24.6237 1.02513 23.954C0.368749 23.2842 0 22.3758 0 21.4286V3.57143C0 1.58929 1.5575 0 3.5 0H31.5ZM28 21.4286V17.8571H18.375L14.875 21.4286H28ZM7 21.4286H11.375L23.3625 9.14286C23.7125 8.80357 23.7125 8.23214 23.3625 7.875L20.2825 4.73214C19.9325 4.375 19.3725 4.375 19.04 4.73214L7 17.0179V21.4286Z" fill="#F0408B"/>
<path d="M31.5 0C32.4283 0 33.3185 0.376274 33.9749 1.04605C34.6313 1.71582 35 2.62423 35 3.57143V21.4286C35 22.3758 34.6313 23.2842 33.9749 23.954C33.3185 24.6237 32.4283 25 31.5 25H3.5C2.57174 25 1.6815 24.6237 1.02513 23.954C0.368749 23.2842 0 22.3758 0 21.4286V3.57143C0 1.58929 1.5575 0 3.5 0H31.5ZM28 21.4286V17.8571H18.375L14.875 21.4286H28ZM7 21.4286H11.375L23.3625 9.14286C23.7125 8.80357 23.7125 8.23214 23.3625 7.875L20.2825 4.73214C19.9325 4.375 19.3725 4.375 19.04 4.73214L7 17.0179V21.4286Z" fill="url(#paint0_linear_157_2845)"/>
<defs>
<linearGradient id="paint0_linear_157_2845" x1="17.5" y1="0" x2="17.5" y2="25" gradientUnits="userSpaceOnUse">
<stop stop-color="#9E49AE"/>
<stop offset="1" stop-color="#F0408B" stop-opacity="0"/>
</linearGradient>
</defs>
</svg>
