<svg width="20" height="20" viewBox="0 0 20 20" fill="none" xmlns="http://www.w3.org/2000/svg">
<path d="M19.167 17.5001V15.8334C19.1664 15.0949 18.9206 14.3774 18.4681 13.7937C18.0156 13.21 17.3821 12.7931 16.667 12.6084" stroke="#F4F4F4" stroke-width="1.5" stroke-linecap="round" stroke-linejoin="round"/>
<path d="M14.1668 17.5V15.8333C14.1668 14.9493 13.8157 14.1014 13.1905 13.4763C12.5654 12.8512 11.7176 12.5 10.8335 12.5H4.16683C3.28277 12.5 2.43493 12.8512 1.8098 13.4763C1.18468 14.1014 0.833496 14.9493 0.833496 15.8333V17.5" stroke="#F4F4F4" stroke-width="1.5" stroke-linecap="round" stroke-linejoin="round"/>
<path d="M13.333 2.6084C14.05 2.79198 14.6855 3.20898 15.1394 3.79366C15.5932 4.37833 15.8395 5.09742 15.8395 5.83756C15.8395 6.57771 15.5932 7.2968 15.1394 7.88147C14.6855 8.46615 14.05 8.88315 13.333 9.06673" stroke="#F4F4F4" stroke-width="1.5" stroke-linecap="round" stroke-linejoin="round"/>
<path d="M7.49983 9.16667C9.34078 9.16667 10.8332 7.67428 10.8332 5.83333C10.8332 3.99238 9.34078 2.5 7.49983 2.5C5.65888 2.5 4.1665 3.99238 4.1665 5.83333C4.1665 7.67428 5.65888 9.16667 7.49983 9.16667Z" stroke="#F4F4F4" stroke-width="1.5" stroke-linecap="round" stroke-linejoin="round"/>
</svg>
